# SSTK version 0.8.0
# 2
mtllib original-2.mtl
o STILE_RIGHT1/STILE_RIGHT/mesh3/mesh3-geometry#mesh3-geometry
v 0.709937 0.657146 0.258366
v 0.709937 -0.598337 0.297600
v 0.709937 0.657146 0.297600
v 0.709937 -0.598337 0.258366
v 0.788405 0.657146 0.297600
v 0.749171 -0.598337 0.258366
v 0.788405 -0.598337 0.297600
v 0.749171 0.657146 0.271444
v 0.749171 0.657146 0.258366
v 0.749171 -0.598337 0.271444
v 0.788405 -0.598337 0.258366
v 0.775327 0.657146 0.271444
v 0.775327 -0.598337 0.271444
v 0.788405 0.657146 0.258366
v 0.775327 0.657146 0.258366
v 0.775327 -0.598337 0.258366
vn -1 0 0
vn 1 0 0
vn 0 0 1
vn 0 0 -1
vn 0 1 0
vn 0 -1 0
usemtl material_0_0
f 1//1 2//1 3//1
f 2//1 1//1 4//1
f 3//2 2//2 1//2
f 4//2 1//2 2//2
f 2//3 5//3 3//3
f 3//4 5//4 2//4
f 5//5 1//5 3//5
f 3//6 1//6 5//6
f 1//4 6//4 4//4
f 4//3 6//3 1//3
f 6//6 2//6 4//6
f 4//5 2//5 6//5
f 5//3 2//3 7//3
f 7//4 2//4 5//4
f 1//5 5//5 8//5
f 8//6 5//6 1//6
f 6//4 1//4 9//4
f 9//3 1//3 6//3
f 2//6 6//6 10//6
f 10//5 6//5 2//5
f 2//6 10//6 7//6
f 7//5 10//5 2//5
f 11//2 5//2 7//2
f 7//1 5//1 11//1
f 8//5 5//5 12//5
f 12//6 5//6 8//6
f 9//5 1//5 8//5
f 8//6 1//6 9//6
f 8//2 6//2 9//2
f 9//1 6//1 8//1
f 6//2 8//2 10//2
f 10//1 8//1 6//1
f 7//6 10//6 13//6
f 13//5 10//5 7//5
f 5//2 11//2 14//2
f 14//1 11//1 5//1
f 7//6 13//6 11//6
f 11//5 13//5 7//5
f 12//5 5//5 15//5
f 15//6 5//6 12//6
f 13//4 8//4 12//4
f 12//3 8//3 13//3
f 8//4 13//4 10//4
f 10//3 13//3 8//3
f 11//4 15//4 14//4
f 14//3 15//3 11//3
f 15//5 5//5 14//5
f 14//6 5//6 15//6
f 11//6 13//6 16//6
f 16//5 13//5 11//5
f 15//1 13//1 12//1
f 12//2 13//2 15//2
f 15//4 11//4 16//4
f 16//3 11//3 15//3
f 13//1 15//1 16//1
f 16//2 15//2 13//2
