# SSTK version 0.8.0
# 28
mtllib original-28.mtl
o DOOR_1_PAD_2_1/DOOR_1_PAD_2/mesh62/mesh62-geometry#mesh62-geometry
v -0.009350 -0.585259 0.291061
v -0.022428 -0.577709 0.297600
v -0.022428 -0.577709 0.291061
v -0.009350 -0.585259 0.297600
v -0.022428 -0.562607 0.291061
v 0.003728 -0.577709 0.291061
v 0.003728 -0.577709 0.297600
v -0.022428 -0.562607 0.297600
v 0.003728 -0.562607 0.291061
v 0.003728 -0.562607 0.297600
v -0.009350 -0.555057 0.297600
v -0.009350 -0.555057 0.291061
vn 0 -0.8660253028382761 -0.500000174843842
vn -0.7499999031866438 -0.4330129441047444 0.49999993545776245
vn -0.7499999031866438 -0.43301294410474417 -0.49999993545776267
vn 0 -0.8660253028382763 0.5000001748438415
vn 0.7499999031866438 0.43301294410474417 0.49999993545776267
vn 0.7499999031866438 0.4330129441047444 -0.49999993545776245
vn 0 0.8660253028382761 0.500000174843842
vn 0 0.8660253028382763 -0.5000001748438415
vn -0.7499999031866438 0.4330129441047444 -0.49999993545776245
vn 0.7499999031866438 -0.4330129441047444 0.49999993545776245
vn 0.7499999031866438 -0.43301294410474417 -0.49999993545776267
vn -0.7499999031866438 0.43301294410474417 0.49999993545776267
usemtl material_0_0
f 1//1 2//2 3//3
f 2//2 1//1 4//4
f 3//5 2//6 1//7
f 4//8 1//7 2//6
f 2//2 5//9 3//3
f 3//5 5//10 2//6
f 3//3 6//11 1//1
f 1//7 6//12 3//5
f 6//11 4//4 1//1
f 1//7 4//8 6//12
f 7//10 2//2 4//4
f 4//8 2//6 7//9
f 5//9 2//2 8//12
f 8//11 2//6 5//10
f 9//6 3//3 5//9
f 5//10 3//5 9//2
f 6//11 3//3 9//6
f 9//2 3//5 6//12
f 4//4 6//11 7//10
f 7//9 6//12 4//8
f 2//2 7//10 10//5
f 10//3 7//9 2//6
f 2//2 10//5 8//12
f 8//11 10//3 2//6
f 11//7 5//9 8//12
f 8//11 5//10 11//1
f 9//6 5//9 12//8
f 12//4 5//10 9//2
f 10//5 6//11 9//6
f 9//2 6//12 10//3
f 6//11 10//5 7//10
f 7//9 10//3 6//12
f 8//12 10//5 11//7
f 11//1 10//3 8//11
f 5//9 11//7 12//8
f 12//4 11//1 5//10
f 12//8 10//5 9//6
f 9//2 10//3 12//4
f 10//5 12//8 11//7
f 11//1 12//4 10//3
