# SSTK version 0.8.0
# 11
mtllib original-11.mtl
o PANEL_RIGHT_BOTTOM1/PANEL_RIGHT_BOTTOM/mesh30/mesh30-geometry#mesh30-geometry
v 0.775327 -0.598337 0.271444
v 0.762249 -0.559103 0.271444
v 0.749171 -0.598337 0.271444
v 0.775327 -0.493713 0.271444
v 0.749171 -0.559103 0.271444
v 0.762249 -0.598337 -0.297447
v 0.775327 -0.598337 -0.330142
v 0.762249 -0.532947 0.271444
v 0.749171 -0.559103 -0.297447
v 0.749171 -0.598337 -0.297447
v 0.775327 -0.493713 -0.330142
v 0.749171 -0.532947 0.271444
v 0.762249 -0.532947 -0.297447
v 0.762249 -0.559103 -0.297447
v 0.762249 -0.598337 -0.303986
v 0.762249 -0.559103 -0.330142
v 0.749171 -0.493713 0.271444
v 0.749171 -0.598337 -0.303986
v 0.762249 -0.493713 -0.303986
v 0.749171 -0.559103 -0.330142
v 0.762249 -0.532947 -0.330142
v 0.749171 -0.493713 -0.297447
v 0.749171 -0.532947 -0.297447
v 0.749171 -0.598337 -0.330142
v 0.762249 -0.559103 -0.303986
v 0.762249 -0.532947 -0.303986
v 0.749171 -0.493713 -0.330142
v 0.762249 -0.493713 -0.297447
v 0.749171 -0.559103 -0.303986
v 0.749171 -0.532947 -0.303986
v 0.749171 -0.532947 -0.330142
v 0.749171 -0.493713 -0.303986
vn 0 0 1
vn 0 0 -1
vn 0 -1 0
vn 0 1 0
vn 1 0 0
vn -1 0 0
usemtl material_0_0
f 1//1 2//1 3//1
f 2//1 1//1 4//1
f 3//2 2//2 1//2
f 4//2 1//2 2//2
f 5//1 3//1 2//1
f 2//2 3//2 5//2
f 3//3 6//3 1//3
f 1//4 6//4 3//4
f 7//5 4//5 1//5
f 1//6 4//6 7//6
f 2//1 4//1 8//1
f 8//2 4//2 2//2
f 9//6 3//6 5//6
f 5//5 3//5 9//5
f 2//4 9//4 5//4
f 5//3 9//3 2//3
f 6//3 3//3 10//3
f 10//4 3//4 6//4
f 1//3 6//3 7//3
f 7//4 6//4 1//4
f 4//5 7//5 11//5
f 11//6 7//6 4//6
f 8//1 4//1 12//1
f 12//2 4//2 8//2
f 13//6 2//6 8//6
f 8//5 2//5 13//5
f 3//6 9//6 10//6
f 10//5 9//5 3//5
f 9//4 2//4 14//4
f 14//3 2//3 9//3
f 9//2 6//2 10//2
f 10//1 6//1 9//1
f 15//3 7//3 6//3
f 6//4 7//4 15//4
f 7//2 16//2 11//2
f 11//1 16//1 7//1
f 12//1 4//1 17//1
f 17//2 4//2 12//2
f 12//3 13//3 8//3
f 8//4 13//4 12//4
f 2//6 13//6 14//6
f 14//5 13//5 2//5
f 6//2 9//2 14//2
f 14//1 9//1 6//1
f 18//3 7//3 15//3
f 15//4 7//4 18//4
f 6//6 19//6 15//6
f 15//5 19//5 6//5
f 7//2 20//2 16//2
f 16//1 20//1 7//1
f 11//2 16//2 21//2
f 21//1 16//1 11//1
f 22//6 12//6 17//6
f 17//5 12//5 22//5
f 13//3 12//3 23//3
f 23//4 12//4 13//4
f 13//6 19//6 14//6
f 14//5 19//5 13//5
f 14//6 19//6 6//6
f 6//5 19//5 14//5
f 7//3 18//3 24//3
f 24//4 18//4 7//4
f 25//1 18//1 15//1
f 15//2 18//2 25//2
f 15//6 19//6 26//6
f 26//5 19//5 15//5
f 20//2 7//2 24//2
f 24//1 7//1 20//1
f 20//4 25//4 16//4
f 16//3 25//3 20//3
f 25//6 21//6 16//6
f 16//5 21//5 25//5
f 11//2 21//2 27//2
f 27//1 21//1 11//1
f 12//6 22//6 23//6
f 23//5 22//5 12//5
f 22//2 13//2 23//2
f 23//1 13//1 22//1
f 19//6 13//6 28//6
f 28//5 13//5 19//5
f 18//6 20//6 24//6
f 24//5 20//5 18//5
f 18//1 25//1 29//1
f 29//2 25//2 18//2
f 15//6 26//6 25//6
f 25//5 26//5 15//5
f 19//1 30//1 26//1
f 26//2 30//2 19//2
f 25//4 20//4 29//4
f 29//3 20//3 25//3
f 21//6 25//6 26//6
f 26//5 25//5 21//5
f 27//2 21//2 31//2
f 31//1 21//1 27//1
f 13//2 22//2 28//2
f 28//1 22//1 13//1
f 20//6 18//6 29//6
f 29//5 18//5 20//5
f 30//1 19//1 32//1
f 32//2 19//2 30//2
f 30//3 21//3 26//3
f 26//4 21//4 30//4
f 21//3 30//3 31//3
f 31//4 30//4 21//4
f 30//6 27//6 31//6
f 31//5 27//5 30//5
f 27//6 30//6 32//6
f 32//5 30//5 27//5
