# SSTK version 0.8.0
# 10
mtllib original-10.mtl
o PANEL_RIGHT_TOP1/PANEL_RIGHT_TOP/mesh28/mesh28-geometry#mesh28-geometry
v 0.775327 0.657146 0.271444
v 0.749171 0.657146 -0.297447
v 0.749171 0.657146 0.271444
v 0.762249 0.657146 -0.297447
v 0.749171 0.617912 0.271444
v 0.762249 0.657146 -0.303986
v 0.762249 0.617912 -0.297447
v 0.749171 0.617912 -0.297447
v 0.762249 0.617912 0.271444
v 0.775327 0.657146 -0.330142
v 0.762249 0.591756 0.271444
v 0.749171 0.657146 -0.330142
v 0.775327 0.552522 -0.330142
v 0.762249 0.591756 -0.297447
v 0.775327 0.552522 0.271444
v 0.749171 0.657146 -0.303986
v 0.762249 0.617912 -0.330142
v 0.762249 0.591756 -0.330142
v 0.762249 0.552522 -0.297447
v 0.749171 0.552522 0.271444
v 0.749171 0.617912 -0.303986
v 0.749171 0.617912 -0.330142
v 0.749171 0.591756 -0.330142
v 0.762249 0.552522 -0.303986
v 0.749171 0.591756 -0.297447
v 0.749171 0.591756 0.271444
v 0.762249 0.617912 -0.303986
v 0.762249 0.591756 -0.303986
v 0.749171 0.552522 -0.330142
v 0.749171 0.552522 -0.297447
v 0.749171 0.552522 -0.303986
v 0.749171 0.591756 -0.303986
vn 0 1 0
vn 0 -1 0
vn -1 0 0
vn 1 0 0
vn 0 0 1
vn 0 0 -1
usemtl material_0_0
f 1//1 2//1 3//1
f 2//1 1//1 4//1
f 3//2 2//2 1//2
f 4//2 1//2 2//2
f 2//3 5//3 3//3
f 3//4 5//4 2//4
f 5//5 1//5 3//5
f 3//6 1//6 5//6
f 4//1 1//1 6//1
f 6//2 1//2 4//2
f 7//6 2//6 4//6
f 4//5 2//5 7//5
f 5//3 2//3 8//3
f 8//4 2//4 5//4
f 9//5 1//5 5//5
f 5//6 1//6 9//6
f 10//1 6//1 1//1
f 1//2 6//2 10//2
f 6//3 7//3 4//3
f 4//4 7//4 6//4
f 2//6 7//6 8//6
f 8//5 7//5 2//5
f 7//2 5//2 8//2
f 8//1 5//1 7//1
f 11//5 1//5 9//5
f 9//6 1//6 11//6
f 5//2 7//2 9//2
f 9//1 7//1 5//1
f 12//1 6//1 10//1
f 10//2 6//2 12//2
f 1//4 13//4 10//4
f 10//3 13//3 1//3
f 7//3 6//3 14//3
f 14//4 6//4 7//4
f 11//5 15//5 1//5
f 1//6 15//6 11//6
f 7//3 11//3 9//3
f 9//4 11//4 7//4
f 6//1 12//1 16//1
f 16//2 12//2 6//2
f 10//6 17//6 12//6
f 12//5 17//5 10//5
f 13//4 1//4 15//4
f 15//3 1//3 13//3
f 13//6 18//6 10//6
f 10//5 18//5 13//5
f 14//3 6//3 19//3
f 19//4 6//4 14//4
f 11//3 7//3 14//3
f 14//4 7//4 11//4
f 15//5 11//5 20//5
f 20//6 11//6 15//6
f 12//3 21//3 16//3
f 16//4 21//4 12//4
f 21//5 6//5 16//5
f 16//6 6//6 21//6
f 10//6 18//6 17//6
f 17//5 18//5 10//5
f 12//6 17//6 22//6
f 22//5 17//5 12//5
f 13//6 23//6 18//6
f 18//5 23//5 13//5
f 19//3 6//3 24//3
f 24//4 6//4 19//4
f 19//6 25//6 14//6
f 14//5 25//5 19//5
f 25//1 11//1 14//1
f 14//2 11//2 25//2
f 26//5 20//5 11//5
f 11//6 20//6 26//6
f 21//3 12//3 22//3
f 22//4 12//4 21//4
f 6//5 21//5 27//5
f 27//6 21//6 6//6
f 28//3 17//3 18//3
f 18//4 17//4 28//4
f 17//2 21//2 22//2
f 22//1 21//1 17//1
f 23//6 13//6 29//6
f 29//5 13//5 23//5
f 23//1 28//1 18//1
f 18//2 28//2 23//2
f 24//3 6//3 27//3
f 27//4 6//4 24//4
f 25//6 19//6 30//6
f 30//5 19//5 25//5
f 11//1 25//1 26//1
f 26//2 25//2 11//2
f 25//3 20//3 26//3
f 26//4 20//4 25//4
f 21//2 17//2 27//2
f 27//1 17//1 21//1
f 17//3 28//3 27//3
f 27//4 28//4 17//4
f 31//3 23//3 29//3
f 29//4 23//4 31//4
f 28//1 23//1 32//1
f 32//2 23//2 28//2
f 24//3 27//3 28//3
f 28//4 27//4 24//4
f 20//3 25//3 30//3
f 30//4 25//4 20//4
f 23//3 31//3 32//3
f 32//4 31//4 23//4
f 31//5 28//5 32//5
f 32//6 28//6 31//6
f 28//5 31//5 24//5
f 24//6 31//6 28//6
