# SSTK version 0.8.0
# 8
mtllib original-8.mtl
o PANEL_LEFT_MIDDLE1/PANEL_LEFT_MIDDLE/mesh19/mesh19-geometry#mesh19-geometry
v -0.767870 0.552522 -0.330142
v -0.767870 -0.493714 0.271444
v -0.767870 0.552522 0.271444
v -0.767870 -0.493714 -0.330142
v -0.741714 0.552522 0.271444
v -0.741714 -0.493714 -0.330142
v -0.741714 -0.493714 0.271444
v -0.741714 0.552522 -0.330142
v -0.741714 -0.493714 -0.297447
v -0.741714 0.552522 -0.303986
v -0.741714 0.552522 -0.297447
v -0.741714 -0.493714 -0.303986
v -0.754792 0.552522 -0.297447
v -0.754792 -0.493714 -0.303986
v -0.754792 -0.493714 -0.297447
v -0.754792 0.552522 -0.303986
vn -1 0 0
vn 1 0 0
vn 0 0 1
vn 0 0 -1
usemtl material_0_0
f 1//1 2//1 3//1
f 2//1 1//1 4//1
f 3//2 2//2 1//2
f 4//2 1//2 2//2
f 2//3 5//3 3//3
f 3//4 5//4 2//4
f 1//4 6//4 4//4
f 4//3 6//3 1//3
f 5//3 2//3 7//3
f 7//4 2//4 5//4
f 6//4 1//4 8//4
f 8//3 1//3 6//3
f 9//2 5//2 7//2
f 7//1 5//1 9//1
f 10//2 6//2 8//2
f 8//1 6//1 10//1
f 5//2 9//2 11//2
f 11//1 9//1 5//1
f 6//2 10//2 12//2
f 12//1 10//1 6//1
f 9//4 13//4 11//4
f 11//3 13//3 9//3
f 10//3 14//3 12//3
f 12//4 14//4 10//4
f 13//4 9//4 15//4
f 15//3 9//3 13//3
f 14//3 10//3 16//3
f 16//4 10//4 14//4
f 14//2 13//2 15//2
f 15//1 13//1 14//1
f 13//2 14//2 16//2
f 16//1 14//1 13//1
