# SSTK version 0.8.0
# 23
mtllib original-23.mtl
o DOOR_2_PAD_1_1/DOOR_2_PAD_1/mesh57/mesh57-geometry#mesh57-geometry
v 0.029884 0.621416 0.291061
v 0.016806 0.613865 0.297600
v 0.016806 0.613865 0.291061
v 0.029884 0.621416 0.297600
v 0.003728 0.621416 0.297600
v 0.003728 0.621416 0.291061
v 0.029884 0.636517 0.297600
v 0.029884 0.636517 0.291061
v 0.003728 0.636517 0.291061
v 0.016806 0.644068 0.291061
v 0.003728 0.636517 0.297600
v 0.016806 0.644068 0.297600
vn 0.7499999031866438 -0.43301294410474417 -0.49999993545776267
vn 0 -0.8660253028382763 0.5000001748438415
vn 0 -0.8660253028382761 -0.500000174843842
vn 0.7499999031866438 -0.4330129441047444 0.49999993545776245
vn 0 0.8660253028382761 0.500000174843842
vn 0 0.8660253028382763 -0.5000001748438415
vn -0.7499999031866438 0.43301294410474417 0.49999993545776267
vn -0.7499999031866438 0.4330129441047444 -0.49999993545776245
vn -0.7499999031866438 -0.4330129441047444 0.49999993545776245
vn 0.7499999031866438 0.4330129441047444 -0.49999993545776245
vn -0.7499999031866438 -0.43301294410474417 -0.49999993545776267
vn 0.7499999031866438 0.43301294410474417 0.49999993545776267
usemtl material_0_0
f 1//1 2//2 3//3
f 2//2 1//1 4//4
f 3//5 2//6 1//7
f 4//8 1//7 2//6
f 5//9 3//3 2//2
f 2//6 3//5 5//10
f 6//11 1//1 3//3
f 3//5 1//7 6//12
f 1//1 7//12 4//4
f 4//8 7//11 1//7
f 4//4 5//9 2//2
f 2//6 5//10 4//8
f 3//3 5//9 6//11
f 6//12 5//10 3//5
f 1//1 6//11 8//10
f 8//9 6//12 1//7
f 7//12 1//1 8//10
f 8//9 1//7 7//11
f 5//9 4//4 7//12
f 7//11 4//8 5//10
f 5//9 9//8 6//11
f 6//12 9//4 5//10
f 8//10 6//11 9//8
f 9//4 6//12 8//9
f 10//6 7//12 8//10
f 8//9 7//11 10//2
f 5//9 7//12 11//7
f 11//1 7//11 5//10
f 9//8 5//9 11//7
f 11//1 5//10 9//4
f 8//10 9//8 10//6
f 10//2 9//4 8//9
f 7//12 10//6 12//5
f 12//3 10//2 7//11
f 11//7 7//12 12//5
f 12//3 7//11 11//1
f 12//5 9//8 11//7
f 11//1 9//4 12//3
f 9//8 12//5 10//6
f 10//2 12//3 9//4
